<svg width="38" height="42" viewBox="0 0 38 42" fill="none" xmlns="http://www.w3.org/2000/svg">
<path d="M18.5655 35.1426V9.41084M18.5655 35.1426L16.2578 32.6105C14.9547 31.1807 13.1881 30.3774 11.3453 30.3774H5.53544C4.57604 30.3774 3.7998 29.5241 3.7998 28.4714V8.45781C3.7998 7.40513 4.57755 6.55176 5.53695 6.55176H12.213C14.0559 6.55176 15.8233 7.35502 17.1264 8.78484L18.5655 10.3639L20.0046 8.78484C21.3077 7.35502 23.0751 6.55176 24.918 6.55176H32.4627C33.4221 6.55176 34.1998 7.40513 34.1998 8.45781V28.4714C34.1998 29.5241 33.4221 30.3774 32.4627 30.3774H25.7866C23.9437 30.3774 22.1763 31.1807 20.8732 32.6105L18.5655 35.1426Z" stroke="white" stroke-opacity="0.88" stroke-width="2" stroke-linecap="round" stroke-linejoin="round"/>
</svg>
