<svg width="38" height="41" viewBox="0 0 38 41" fill="none" xmlns="http://www.w3.org/2000/svg">
<path d="M23.75 4.09961V10.2496C23.75 11.3818 24.6007 12.2996 25.65 12.2996H31.35M13.3 12.2996H17.1M13.3 18.4496H24.7M13.3 24.5996H24.7M28.5 7.17461C27.6544 6.35827 26.7769 5.39005 26.2229 4.76121C25.8543 4.34276 25.345 4.09961 24.8099 4.09961H10.4496C8.35089 4.09961 6.64957 5.93523 6.64956 8.19959L6.64941 32.7995C6.6494 35.0639 8.35071 36.8995 10.4494 36.8995L27.5495 36.8996C29.6481 36.8996 31.3494 35.064 31.3495 32.7997L31.35 11.0659C31.35 10.5417 31.1647 10.0378 30.8275 9.66046C30.204 8.96263 29.1628 7.81441 28.5 7.17461Z" stroke="white" stroke-opacity="0.88" stroke-width="2" stroke-linecap="round" stroke-linejoin="round"/>
</svg>
